<svg width="50" height="50" viewBox="0 0 50 50" fill="none" xmlns="http://www.w3.org/2000/svg">
<g clip-path="url(#clip0_43305_2434)">
<rect width="50" height="50" rx="25" fill="white"/>
<path d="M50 0H0V50H50V0Z" fill="#444DF2"/>
<path d="M39.98 29.7098C40.46 30.8098 41.23 31.7598 41.82 32.7998C42.41 33.8398 42.81 35.0898 42.48 36.2398C42.77 36.3098 43 35.9798 43.11 35.6998C43.75 33.9898 43.06 31.1998 42.44 29.5398C41.65 27.4098 39.95 25.5698 39.86 23.2998C39.1 25.3198 39.1 27.7198 39.98 29.7098Z" fill="#797EF3"/>
<path d="M38.72 7.37012C40.08 9.02012 41.14 11.0401 41.1 13.1801C41.08 13.9301 40.93 14.6601 40.78 15.3901C40.47 16.8901 40.16 18.3801 39.85 19.8801C39.77 20.2501 39.7 20.6201 39.5 20.9401C39.04 21.6901 37.99 21.9301 37.17 21.6301C36.35 21.3301 35.74 20.5801 35.42 19.7701C34.92 18.5301 34.98 17.1101 35.35 15.8301C35.72 14.5401 36.38 13.3601 37.06 12.2101C37.57 11.3501 38.11 10.4801 38.91 9.88012L38.72 7.37012Z" fill="#797EF3"/>
<path d="M30.89 50.0004H20.17C20.16 50.0004 20.16 50.0004 20.15 50.0004C18.34 49.9104 16.51 49.9704 14.69 49.9904C14.33 49.9904 13.97 50.0004 13.6 50.0004C13.67 49.7604 13.74 49.5304 13.8 49.3004C14.94 45.3504 15.49 41.5204 15.69 37.4704C15.73 36.6904 15.75 35.9004 15.77 35.1104C16.04 35.1904 16.31 35.2603 16.59 35.3303C16.65 35.3503 16.7 35.3604 16.76 35.3704C17.22 35.4804 17.68 35.5804 18.15 35.6504C22.23 36.3504 26.44 35.9104 30.59 35.8604C32.23 35.8404 31.48 39.0504 30.83 41.5604C30.83 41.5704 30.82 41.5804 30.82 41.5904C30.53 42.6804 30.27 43.6404 30.23 44.1404C30.08 46.1104 30.23 48.1504 30.89 50.0004Z" fill="#E8C5AA"/>
<path d="M34.55 8.78983C33.6 8.10983 32.46 7.67983 31.25 7.25983C25.87 5.38983 19.23 5.94983 15.04 10.1298C13.44 11.7198 12.29 13.7398 11.68 15.9198C11.02 18.2698 11.36 20.3498 11.51 22.7198C11.74 26.4798 12.33 30.4598 14.77 33.3298C18.9 38.1898 25.4 41.2398 31.73 41.6498C33.7 41.7798 35.89 41.5198 37.59 40.4598C38.61 39.8198 39.45 38.8398 39.85 37.6898C40.12 36.9098 40 36.0198 40.14 35.1998C40.41 33.5798 40.97 32.0298 41.17 30.3998C41.38 28.6798 41.34 26.9398 41.19 25.2198C41.1 24.1598 41.07 23.0698 40.79 22.0398C40.51 20.9998 39.98 20.0698 39.66 19.0298C39.02 16.9398 38.42 14.6498 37.43 12.6998C36.73 11.3298 35.81 9.67983 34.55 8.78983Z" fill="#F4D3B8"/>
<path d="M32.3835 23.4838C33.1634 23.302 33.5465 22.0863 33.2392 20.7685C32.9319 19.4507 32.0506 18.5299 31.2707 18.7117C30.4908 18.8936 30.1076 20.1093 30.4149 21.4271C30.7222 22.7449 31.6036 23.6657 32.3835 23.4838Z" fill="#1B1464"/>
<path d="M38.211 20.9384C38.824 20.7954 39.127 19.8464 38.888 18.8194C38.649 17.7924 37.957 17.0754 37.344 17.2184C36.731 17.3614 36.428 18.3104 36.668 19.3374C36.907 20.3644 37.598 21.0814 38.211 20.9384Z" fill="#1B1464"/>
<path d="M39.5881 24.9025C39.7391 25.0835 39.7701 25.4115 39.5531 25.9665C39.3491 26.4885 38.9981 27.0165 38.7361 27.3985L39.6441 28.0195C39.9021 27.6425 40.3221 27.0205 40.5771 26.3665C40.8201 25.7465 41.0001 24.8745 40.4321 24.1955L39.5881 24.9025ZM37.4801 24.0545C37.8931 24.2555 38.4291 24.3705 38.7721 24.4735C39.1681 24.5915 39.4281 24.7155 39.5941 24.9085L40.4281 24.1915C40.0441 23.7445 39.5191 23.5485 39.0871 23.4195C38.6021 23.2745 38.2681 23.2145 37.9611 23.0655L37.4801 24.0545ZM35.1761 21.0195C35.3761 22.3855 36.3011 23.4765 37.4781 24.0535L37.9621 23.0655C37.0591 22.6225 36.4041 21.8135 36.2641 20.8595L35.1761 21.0195ZM38.7361 27.3985C38.5641 27.6495 38.6291 27.9915 38.8791 28.1625C39.1291 28.3335 39.4721 28.2695 39.6431 28.0195L38.7361 27.3985ZM40.0101 24.5495L40.4321 24.1965C40.4301 24.1945 40.4291 24.1925 40.4271 24.1915L40.0101 24.5495ZM37.7201 23.5595L37.4781 24.0535C37.4791 24.0535 37.4791 24.0545 37.4801 24.0545L37.7201 23.5595ZM36.2641 20.8595C36.2201 20.5585 35.9411 20.3515 35.6401 20.3955C35.3391 20.4395 35.1321 20.7185 35.1761 21.0195L36.2641 20.8595Z" fill="#1B1464"/>
<path d="M33.04 32.4485C34.666 32.3305 36.636 32.1745 38.065 30.9705L37.356 30.1295C36.245 31.0655 34.655 31.2295 32.961 31.3515L33.04 32.4485ZM30.401 32.3765C31.303 32.5765 32.224 32.5075 33.04 32.4485L32.961 31.3515C32.117 31.4125 31.358 31.4625 30.64 31.3035L30.401 32.3765ZM37.63 33.0215C35.378 33.9515 32.546 33.2905 30.931 31.4745L30.109 32.2055C32.034 34.3695 35.362 35.1485 38.05 34.0385L37.63 33.0215ZM38.064 30.9705C38.296 30.7745 38.326 30.4275 38.13 30.1955C37.934 29.9635 37.587 29.9335 37.355 30.1295L38.064 30.9705ZM30.52 31.8395L30.639 31.3025C30.406 31.2505 30.166 31.3555 30.045 31.5605C29.924 31.7665 29.95 32.0265 30.108 32.2045L30.52 31.8395ZM38.05 34.0375C38.331 33.9215 38.464 33.5995 38.348 33.3195C38.232 33.0385 37.91 32.9055 37.63 33.0215L38.05 34.0375Z" fill="#1B1464"/>
<path d="M28.721 16.7001C27.808 17.1181 26.921 17.8431 26.502 18.8491L27.517 19.2721C27.798 18.5971 28.431 18.0421 29.178 17.7011L28.721 16.7001ZM32.298 16.2611C31.027 16.0071 29.92 16.1551 28.723 16.7001L29.178 17.7011C30.18 17.2451 31.053 17.1341 32.083 17.3401L32.298 16.2611ZM26.502 18.8481C26.385 19.1281 26.518 19.4501 26.798 19.5671C27.078 19.6841 27.4 19.5512 27.517 19.2712L26.502 18.8481ZM28.95 17.2001L28.722 16.6991C28.722 16.6991 28.721 16.6991 28.721 16.7001L28.95 17.2001ZM32.082 17.3391C32.38 17.3991 32.67 17.2051 32.729 16.9081C32.789 16.6101 32.595 16.3201 32.298 16.2611L32.082 17.3391Z" fill="#1B1464"/>
<path d="M36.0899 15.26C36.2499 15.786 36.2499 15.786 36.2489 15.786C36.2489 15.786 36.2489 15.786 36.2499 15.786C36.2509 15.786 36.2539 15.785 36.2569 15.784C36.2639 15.782 36.2769 15.778 36.2939 15.774C36.3279 15.765 36.3789 15.753 36.4449 15.739C36.5769 15.711 36.7629 15.68 36.9729 15.666C37.4109 15.636 37.8699 15.687 38.2029 15.902L38.7999 14.978C38.1719 14.573 37.4259 14.533 36.8999 14.569C36.6279 14.587 36.3899 14.627 36.2209 14.663C36.1359 14.681 36.0669 14.698 36.0169 14.71C35.9919 14.716 35.9729 14.722 35.9579 14.726C35.9509 14.728 35.9449 14.73 35.9409 14.731C35.9389 14.732 35.9369 14.732 35.9349 14.733C35.9339 14.733 35.9339 14.733 35.9329 14.734H35.9319C35.9299 14.734 35.9299 14.734 36.0899 15.26ZM38.2019 15.902C38.4569 16.067 38.7979 15.994 38.9619 15.738C39.1259 15.482 39.0539 15.142 38.7979 14.978L38.2019 15.902ZM35.9299 14.734C35.6389 14.822 35.4749 15.129 35.5629 15.42C35.6509 15.711 35.9579 15.875 36.2489 15.787L35.9299 14.734Z" fill="#1B1464"/>
<path d="M30.78 11.4198C30.96 11.6498 31.15 11.8798 31.34 12.0998C32.68 13.6498 34.48 13.5898 36.4 13.7898C37.83 13.9298 39.36 14.3098 40.24 15.4498C40.96 16.3898 41.08 17.6798 40.9 18.8498C40.83 19.3398 40.71 19.8198 40.66 20.3098C40.5 21.8798 41.08 23.4798 42.1 24.6698C43.12 25.8698 44.57 26.6698 46.09 27.0398C45.29 26.3198 44.48 25.5898 43.88 24.6798C43.2 23.6398 42.83 22.4098 42.84 21.1698C42.85 19.8998 43.24 18.6598 43.5 17.4198C44.08 14.6498 43.9 11.7498 43.12 9.03984C42.47 6.79984 41.35 3.71984 39.26 2.42984C37.54 1.35984 35.67 0.819836 33.62 0.979836C31.88 1.11984 30.13 1.92984 29.14 3.37984C27.44 5.86984 29.14 9.30984 30.78 11.4198Z" fill="#797EF3"/>
<path d="M30.25 6.94047C30.1 7.05047 29.95 7.15047 29.8 7.25047C29.6 7.38047 29.4 7.51047 29.2 7.63047C29.07 7.71047 28.94 7.79047 28.81 7.87047C26.8 9.15047 24.78 10.4305 22.95 11.9605C21.79 12.9305 20.71 13.9805 19.65 15.0505C19.17 15.5305 18.55 15.9705 18.12 16.4805C17.7 16.9805 17.71 17.5105 17.64 18.1605C17.63 18.2605 17.62 18.3705 17.6 18.4705C17.22 21.7405 16.84 25.0105 16.45 28.2705C16.17 30.6305 16.41 32.9105 16.57 35.1905C16.57 35.2305 16.58 35.2705 16.58 35.3105C16.66 36.5705 16.72 37.8305 16.65 39.1205C16.63 39.4905 16.6 39.8605 16.55 40.2305C16.39 41.6105 16.22 42.9805 16.06 44.3605C15.85 46.1405 15.63 47.9605 14.88 49.5905C14.82 49.7205 14.75 49.8605 14.68 49.9905H5.2C4.97 49.7905 4.76 49.5905 4.61 49.3505C4.02 48.3905 4.31 46.6505 4.67 45.6705C5.06 44.6405 5.74 43.7405 6.21 42.7505C6.68 41.7505 6.91 40.5305 6.38 39.5705C6.15 39.1505 5.8 38.8205 5.51 38.4405C4.22 36.6805 4.66 34.2305 5.29 32.1405C5.92 30.0505 6.69 27.7905 5.91 25.7505C5.54 24.7905 4.85 23.9805 4.42 23.0405C3.25 20.4605 4.25 17.3805 5.83 15.0305C6.48 14.0605 7.23 13.1405 7.65 12.0505C8.11 10.8605 8.14 9.55047 8.33 8.29047C8.52 7.03047 8.94 5.71047 9.95 4.92047C10.78 4.27047 11.84 4.11047 12.81 3.76047C13.8 3.40047 14.61 2.79047 15.5 2.25047C17.57 1.00047 19.93 0.310471 22.35 0.270471C24.12 0.250471 25.89 0.550471 27.57 1.09047C28.63 1.43047 29.28 1.86047 29.9 2.49047C30.22 2.82047 30.54 3.21047 30.9 3.66047C31.17 4.00047 31.44 4.35047 31.52 4.77047C31.68 5.66047 31 6.39047 30.25 6.94047Z" fill="#797EF3"/>
<path d="M13.52 20.1904C12.88 19.4304 11.99 18.9304 10.77 18.9004C8.97996 18.8604 7.25996 20.0904 6.61996 21.7604C5.57996 24.4504 7.31996 27.7404 9.66996 29.1204C11.76 30.3504 14.21 29.6304 14.82 27.2004C15.09 26.1204 14.98 24.9804 14.88 23.8804C14.74 22.5504 14.34 21.1704 13.52 20.1904Z" fill="#F4D3B8"/>
<path d="M12.4 24.4403C12.473 23.8953 12.472 23.8953 12.472 23.8953C12.472 23.8953 12.472 23.8953 12.471 23.8953H12.47C12.469 23.8953 12.468 23.8953 12.467 23.8953C12.464 23.8953 12.461 23.8943 12.457 23.8943C12.449 23.8933 12.438 23.8923 12.425 23.8903C12.398 23.8873 12.361 23.8833 12.314 23.8803C12.221 23.8733 12.091 23.8653 11.937 23.8643C11.632 23.8623 11.212 23.8863 10.787 23.9963C10.366 24.1053 9.89298 24.3113 9.54098 24.7093C9.17398 25.1233 8.99098 25.6853 9.05198 26.3883L10.148 26.2933C10.109 25.8463 10.226 25.5953 10.365 25.4383C10.519 25.2643 10.759 25.1393 11.063 25.0613C11.363 24.9833 11.68 24.9633 11.932 24.9643C12.056 24.9653 12.158 24.9713 12.229 24.9763C12.264 24.9793 12.291 24.9813 12.308 24.9833C12.317 24.9843 12.323 24.9853 12.326 24.9853C12.328 24.9853 12.329 24.9853 12.329 24.9853C12.327 24.9853 12.327 24.9853 12.4 24.4403ZM8.89998 22.3403C8.98198 22.8843 8.98198 22.8843 8.98198 22.8843C8.98198 22.8843 8.98398 22.8843 8.98598 22.8833C8.98998 22.8823 8.99698 22.8823 9.00598 22.8803C9.02498 22.8783 9.05498 22.8743 9.09498 22.8703C9.17398 22.8623 9.28998 22.8543 9.43098 22.8513C9.71498 22.8453 10.085 22.8633 10.45 22.9493C10.817 23.0353 11.148 23.1833 11.392 23.4133C11.624 23.6333 11.812 23.9593 11.853 24.4803L12.95 24.3963C12.89 23.6183 12.591 23.0313 12.148 22.6133C11.717 22.2063 11.185 21.9913 10.703 21.8773C10.218 21.7633 9.74998 21.7433 9.40998 21.7503C9.23798 21.7533 9.09498 21.7643 8.99298 21.7733C8.94198 21.7783 8.90098 21.7833 8.87198 21.7863C8.85698 21.7883 8.84598 21.7893 8.83698 21.7913C8.83298 21.7923 8.82898 21.7923 8.82598 21.7923C8.82498 21.7923 8.82298 21.7923 8.82298 21.7933H8.82198C8.82198 21.7933 8.82198 21.7933 8.82098 21.7933C8.81798 21.7963 8.81798 21.7963 8.89998 22.3403ZM9.05198 26.3883C9.07798 26.6913 9.34498 26.9153 9.64798 26.8883C9.95098 26.8623 10.175 26.5953 10.148 26.2923L9.05198 26.3883ZM12.4 24.4403L12.327 24.9853C12.491 25.0073 12.657 24.9533 12.778 24.8393C12.899 24.7253 12.961 24.5633 12.948 24.3973L12.4 24.4403ZM8.81798 21.7963C8.51798 21.8423 8.31098 22.1223 8.35698 22.4223C8.40298 22.7223 8.68298 22.9293 8.98298 22.8833L8.81798 21.7963Z" fill="#EABC97"/>
<path d="M14.83 13.6898C15.44 11.9798 16.46 10.3598 17.5 8.89985C18.51 7.46985 19.88 6.29985 21.45 5.51985C22.92 4.79985 24.62 4.41985 26.2 4.83985C28.78 5.52985 30.35 8.74985 29.06 11.1898C28.55 12.1599 27.58 12.7899 26.68 13.3998C23.79 15.3798 20.96 17.9198 20.22 21.3398C19.76 23.4498 20.17 25.6399 19.83 27.7598C19.56 29.3899 18.8 30.7699 18.32 32.2999C17.81 33.8799 18.08 35.7399 18.55 37.2999C19.08 39.0499 19.95 40.6599 20.8 42.2799C21.43 43.4799 22.04 44.9999 21.26 46.1099C21.64 45.0899 21.22 43.9199 20.54 43.0699C19.86 42.2199 18.95 41.5899 18.15 40.8498C16.3 39.1199 15.09 36.7299 14.74 34.2298C14.59 33.1898 14.47 32.0699 14.4 31.0099C14.32 29.7399 14.85 28.4799 14.99 27.2199C15.25 24.8399 14.14 23.0098 13.93 20.7998C13.71 18.4798 14.04 15.9098 14.83 13.6898Z" fill="#797EF3"/>
<path d="M30.35 41.6496C30.35 41.0996 30.35 41.0996 30.35 41.0996C30.349 41.0996 30.348 41.0996 30.345 41.0996C30.34 41.0996 30.332 41.0996 30.32 41.0996C30.297 41.0986 30.261 41.0976 30.212 41.0956C30.115 41.0916 29.969 41.0826 29.778 41.0636C29.397 41.0276 28.84 40.9536 28.152 40.8056C26.775 40.5096 24.875 39.9146 22.803 38.7226L22.255 39.6766C24.442 40.9346 26.453 41.5656 27.921 41.8816C28.655 42.0396 29.255 42.1196 29.674 42.1596C29.884 42.1796 30.049 42.1896 30.163 42.1946C30.22 42.1976 30.265 42.1986 30.296 42.1996C30.312 42.1996 30.324 42.2006 30.333 42.2006C30.337 42.2006 30.341 42.2006 30.344 42.2006C30.345 42.2006 30.347 42.2006 30.347 42.2006H30.348C30.35 42.1996 30.35 42.1996 30.35 41.6496ZM22.804 38.7226C22.541 38.5716 22.204 38.6616 22.053 38.9256C21.902 39.1896 21.992 39.5256 22.256 39.6766L22.804 38.7226ZM30.35 42.1996C30.654 42.1996 30.9 41.9536 30.9 41.6496C30.9 41.3456 30.654 41.0996 30.35 41.0996V42.1996Z" fill="#1B1464"/>
</g>
<circle cx="43" cy="43" r="6" fill="#92C83E" stroke="white" stroke-width="2"/>
<defs>
<clipPath id="clip0_43305_2434">
<rect width="50" height="50" rx="25" fill="white"/>
</clipPath>
</defs>
</svg>
