<svg width="50" height="50" viewBox="0 0 50 50" fill="none" xmlns="http://www.w3.org/2000/svg">
<g clip-path="url(#clip0_43305_2373)">
<rect width="50" height="50" rx="25" fill="white"/>
<path d="M50 0H0V50H50V0Z" fill="#797EF3"/>
<path d="M30.991 50.0004H12.629C13.074 48.3694 13.435 46.9244 13.502 46.6214C14.087 43.9404 14.457 41.2204 14.605 38.4914C14.682 37.0764 14.7 35.6584 14.658 34.2424C14.629 33.2614 14.182 31.6934 14.627 30.7584C15.479 28.9654 19.44 31.0704 21.199 31.2994C24.22 31.6934 27.292 31.5084 30.323 31.3244C29.862 37.5494 30.088 43.8154 30.991 50.0004Z" fill="#797EF3"/>
<path d="M43.765 27.9894C44.048 29.2704 44.592 30.5124 44.602 31.8254C44.33 31.8914 44.077 31.6744 43.89 31.4664C41.913 29.2634 41.285 26.1884 40.87 23.2574C40.614 21.4474 39.957 18.4414 40.815 16.7274C41.252 15.8544 42.834 14.8394 43.738 15.6794C44.807 16.6744 43.945 20.1824 43.803 21.4594C43.562 23.6254 43.288 25.8334 43.765 27.9894Z" fill="#444DF2"/>
<path d="M28.172 3.34393C27.329 2.86493 26.454 2.44193 25.547 2.08593C21.674 0.567927 17.125 0.413927 13.457 2.37893C10.23 4.10793 7.97004 7.30693 6.75304 10.7599C5.53604 14.2129 5.26803 17.9259 5.24903 21.5859C5.22503 26.0359 5.55403 30.4829 6.10203 34.8979C6.45203 37.7219 7.32603 44.9819 11.105 45.1319C15.744 45.3149 20.4 45.0849 24.999 44.4489C28.916 43.9079 35.37 46.8899 38.5 44.1999C40.369 42.5929 39.687 36.8179 40.489 34.4869C41.464 31.6549 42.191 28.7099 42.278 25.7159C42.393 21.7689 41.366 17.7939 39.353 14.3969C38.282 12.5899 36.945 10.9519 35.519 9.40993C33.356 7.07193 30.929 4.90993 28.172 3.34393Z" fill="#444DF2"/>
<path d="M30.991 50.0004H12.629C13.074 48.3694 13.435 46.9244 13.502 46.6214C14.087 43.9404 14.457 41.2204 14.605 38.4914C14.682 37.0764 14.7 35.6584 14.658 34.2424C14.629 33.2614 14.182 31.6934 14.627 30.7584C15.479 28.9654 19.44 31.0704 21.199 31.2994C24.22 31.6934 27.292 31.5084 30.323 31.3244C29.862 37.5494 30.088 43.8154 30.991 50.0004Z" fill="#E8AE8E"/>
<path d="M14.873 37.4185C17.929 40.7005 22.137 42.7815 26.654 43.9475C30.954 45.0575 36.017 45.1885 39.309 42.2075C42.075 39.7035 42.829 35.6955 43.113 31.9745C43.453 27.5165 43.345 23.0365 43.15 18.5705C43.065 16.6285 42.962 14.6735 42.496 12.7875C41.791 9.93552 40.03 6.14552 37.242 4.87952C33.874 3.35052 29.839 2.94752 26.195 3.35952C23.558 3.65752 20.875 3.97352 18.451 5.05052C16.273 6.01852 13.45 7.25352 12.287 9.41452C10.812 12.1545 9.97301 15.3225 9.61601 18.4005C9.07401 23.0685 9.70701 27.8865 11.522 32.2265C12.353 34.2195 13.496 35.9405 14.873 37.4185Z" fill="#F4C19F"/>
<path d="M12.308 19.1952C11.669 18.4402 10.776 17.9372 9.55699 17.9092C7.76599 17.8682 6.05099 19.1022 5.40299 20.7732C4.35999 23.4642 6.10399 26.7482 8.45499 28.1362C10.543 29.3682 12.994 28.6502 13.603 26.2132C13.873 25.1322 13.767 23.9982 13.658 22.8892C13.528 21.5532 13.128 20.1652 12.308 19.1952Z" fill="#F4C19F"/>
<path d="M8.38294 25.8873C8.10094 25.8873 7.86094 25.6713 7.83594 25.3853C7.75494 24.4533 8.11994 23.8933 8.43994 23.5873C9.02294 23.0303 9.87394 22.8853 10.4909 22.8623C10.3979 22.6513 10.2619 22.4753 10.0809 22.3313C9.25894 21.6773 7.78094 21.8793 7.76594 21.8813C7.46594 21.9273 7.18494 21.7203 7.13994 21.4203C7.09394 21.1203 7.30094 20.8393 7.60094 20.7943C7.67994 20.7823 9.55794 20.5113 10.7649 21.4703C11.3429 21.9303 11.6689 22.5783 11.7319 23.3953C11.7449 23.5603 11.6819 23.7233 11.5619 23.8373C11.4409 23.9513 11.2759 24.0043 11.1109 23.9833C10.7449 23.9363 9.68594 23.9163 9.19794 24.3843C8.98394 24.5903 8.89694 24.8863 8.93194 25.2903C8.95794 25.5933 8.73394 25.8593 8.43194 25.8863C8.41494 25.8863 8.39894 25.8873 8.38294 25.8873Z" fill="#EAAA7F"/>
<path d="M21.344 16.6661C21.341 16.6701 21.339 16.6741 21.336 16.6781C21.006 17.1611 19.839 17.1131 19.335 17.1771C18.916 17.2301 12.974 17.7561 12.946 17.4771C13.173 19.7921 13.4 22.1081 13.627 24.4231C13.915 27.3651 14.16 30.5251 12.692 33.0911C13.229 29.1781 12.525 25.1041 10.706 21.5981C10.127 20.4811 9.42799 19.3951 9.18199 18.1611C8.97099 17.0991 9.11199 15.9991 9.33599 14.9401C9.89599 12.3021 10.977 9.77611 12.499 7.55011C15.294 3.46411 20.366 1.37811 25.181 1.03611C27.321 0.88411 29.473 0.90611 31.609 1.10211C34.669 1.38311 38.154 2.37911 40.174 4.84811C41.363 6.30211 42.124 8.05011 42.87 9.77411C43.04 10.1671 45.406 17.4061 44.807 17.2751C43.589 17.0101 42.372 16.7451 41.154 16.4801C39.847 16.1961 38.539 15.9111 37.213 15.7361C34.504 15.3791 31.765 15.4891 29.051 15.7271C28.34 15.7891 23.907 16.8021 23.553 15.7811C22.967 14.0911 22.38 12.4011 21.794 10.7111C21.698 10.4351 21.295 10.1411 21.202 10.4181C21.204 11.5791 21.91 15.7911 21.344 16.6661Z" fill="#444DF2"/>
<path d="M31.633 31.355C31.33 31.355 31.084 31.11 31.083 30.807C31.082 30.503 31.327 30.256 31.63 30.255C31.666 30.255 35.18 30.211 35.38 28.263C35.459 27.489 35.227 27.22 34.806 26.733C34.114 25.933 33.167 24.837 33.23 21.289C33.235 20.989 33.48 20.749 33.78 20.749C33.783 20.749 33.787 20.749 33.79 20.749C34.094 20.754 34.336 21.005 34.33 21.309C34.274 24.437 35.03 25.311 35.638 26.014C36.112 26.562 36.602 27.13 36.474 28.376C36.173 31.304 31.82 31.355 31.635 31.356C31.635 31.355 31.634 31.355 31.633 31.355Z" fill="#1B1464"/>
<path d="M27.2161 26.0433C28.018 25.9907 28.5963 24.8547 28.5078 23.5061C28.4193 22.1575 27.6974 21.1069 26.8956 21.1596C26.0937 21.2122 25.5154 22.3481 25.6039 23.6967C25.6924 25.0453 26.4142 26.0959 27.2161 26.0433Z" fill="#1B1464"/>
<path d="M38.3267 25.7308C39.1286 25.6782 39.7069 24.5422 39.6184 23.1936C39.5298 21.845 38.808 20.7944 38.0061 20.8471C37.2043 20.8997 36.626 22.0356 36.7145 23.3842C36.803 24.7328 37.5248 25.7834 38.3267 25.7308Z" fill="#1B1464"/>
<path d="M41.064 20.6016C40.951 20.6016 40.838 20.5676 40.74 20.4956C38.339 18.7406 36.18 19.2866 36.089 19.3106C35.796 19.3886 35.495 19.2156 35.416 18.9226C35.337 18.6306 35.508 18.3296 35.799 18.2486C35.91 18.2186 38.541 17.5256 41.389 19.6066C41.634 19.7856 41.688 20.1296 41.509 20.3756C41.401 20.5236 41.234 20.6016 41.064 20.6016Z" fill="#1B1464"/>
<path d="M21.542 21.1984C21.456 21.1984 21.368 21.1784 21.286 21.1344C21.017 20.9924 20.914 20.6604 21.056 20.3914C21.111 20.2874 22.458 17.8584 28.165 17.8584C28.215 17.8584 28.265 17.8584 28.316 17.8594C28.62 17.8614 28.864 18.1094 28.862 18.4134C28.86 18.7154 28.614 18.9594 28.312 18.9594C28.311 18.9594 28.309 18.9594 28.308 18.9594C23.22 18.9224 22.039 20.8844 22.029 20.9044C21.931 21.0914 21.74 21.1984 21.542 21.1984Z" fill="#1B1464"/>
<path d="M30.7179 36.0215C26.3649 36.0215 23.4689 32.4965 23.3389 32.3365C23.1479 32.1005 23.1849 31.7536 23.4219 31.5636C23.6579 31.3726 24.0039 31.4096 24.1949 31.6466C24.2399 31.7016 27.2949 35.3906 31.5669 34.8706C31.8689 34.8346 32.1429 35.0486 32.1789 35.3506C32.2159 35.6516 32.0009 35.9265 31.6989 35.9625C31.3649 36.0025 31.0369 36.0215 30.7179 36.0215Z" fill="#1B1464"/>
<path d="M30.081 45.1001C23.67 45.1001 17.124 40.1971 16.849 39.9881C16.607 39.8051 16.559 39.4601 16.743 39.2181C16.926 38.9761 17.271 38.9281 17.514 39.1111C17.579 39.1601 24.044 43.9991 30.082 43.9991C30.386 43.9991 30.632 44.2451 30.632 44.5491C30.632 44.8531 30.385 45.1001 30.081 45.1001Z" fill="#1B1464"/>
</g>
<circle cx="43" cy="43" r="6" fill="#92C83E" stroke="white" stroke-width="2"/>
<defs>
<clipPath id="clip0_43305_2373">
<rect width="50" height="50" rx="25" fill="white"/>
</clipPath>
</defs>
</svg>
