<svg width="50" height="50" viewBox="0 0 50 50" fill="none" xmlns="http://www.w3.org/2000/svg">
<g clip-path="url(#clip0_43203_4385)">
<path d="M50 0H0V50H50V0Z" fill="#ADB0D9"/>
<path d="M30.691 50.0005H8.43896C8.51796 49.7655 8.59897 49.5315 8.67797 49.2975C10.266 44.5925 10.885 40.0375 10.976 35.1055C16.61 36.5395 22.527 35.9245 28.34 35.8645C30.503 35.8425 29.776 37.5355 29.804 39.1105C29.838 41.0795 29.94 43.0475 30.11 45.0095C30.254 46.6785 30.448 48.3435 30.691 50.0005Z" fill="#ADB0D9"/>
<path d="M30.691 50.0005H8.43896C8.51796 49.7655 8.59897 49.5315 8.67797 49.2975C10.266 44.5925 10.885 40.0375 10.976 35.1055C16.61 36.5395 22.527 35.9245 28.34 35.8645C30.503 35.8425 29.776 37.5355 29.804 39.1105C29.838 41.0795 29.94 43.0475 30.11 45.0095C30.254 46.6785 30.448 48.3435 30.691 50.0005Z" fill="#E8AE8E"/>
<path d="M14.91 39.1321C14.946 39.1751 14.983 39.2181 15.019 39.2601C15.483 39.8061 15.95 40.3551 16.496 40.8201C19.343 43.2421 23.774 43.5201 27.281 44.2041C29.411 44.6191 31.543 44.6901 33.642 44.0471C36.062 43.3051 38.233 41.6691 39.449 39.4491C40.963 36.6831 40.902 33.3571 40.802 30.2051C40.745 28.4161 40.688 26.6281 40.631 24.8391C40.595 23.7171 40.56 22.5941 40.617 21.4731C40.757 18.7101 41.479 15.8761 40.883 13.1221C40.388 10.8361 38.476 8.45009 36.342 7.48109C32.974 5.95209 28.939 5.54909 25.295 5.96109C22.658 6.25909 19.975 6.57509 17.551 7.65209C15.373 8.62009 12.55 9.85509 11.387 12.0161C9.91196 14.7561 9.07297 17.9241 8.71597 21.0021C8.42097 23.5461 8.47397 26.1311 8.87697 28.6611C9.25797 31.0541 9.89497 33.2311 11.477 35.0921C12.62 36.4391 13.765 37.7851 14.91 39.1321Z" fill="#F4C19F"/>
<path d="M30.733 31.355C30.435 31.355 30.19 31.117 30.183 30.818C30.176 30.514 30.416 30.262 30.72 30.255C32.091 30.223 32.638 29.826 33.569 28.97C32.505 26.593 31.879 24.071 31.706 21.467C31.686 21.164 31.915 20.902 32.218 20.882C32.519 20.863 32.783 21.091 32.803 21.394C32.973 23.958 33.64 26.543 34.732 28.869C34.834 29.085 34.784 29.342 34.609 29.505C33.335 30.691 32.585 31.312 30.745 31.354C30.742 31.355 30.738 31.355 30.733 31.355Z" fill="#1B1464"/>
<path d="M26.3184 26.0423C27.1203 25.9897 27.6986 24.8538 27.6101 23.5052C27.5215 22.1566 26.7997 21.106 25.9978 21.1586C25.196 21.2112 24.6177 22.3472 24.7062 23.6958C24.7947 25.0444 25.5165 26.095 26.3184 26.0423Z" fill="#1B1464"/>
<path d="M37.429 25.7298C38.2309 25.6772 38.8092 24.5413 38.7207 23.1927C38.6322 21.8441 37.9103 20.7935 37.1084 20.8461C36.3066 20.8987 35.7283 22.0347 35.8168 23.3833C35.9053 24.7319 36.6271 25.7825 37.429 25.7298Z" fill="#1B1464"/>
<path d="M39.9299 21.1851C39.7739 21.1851 39.6179 21.1191 39.5099 20.9901C37.5719 18.6981 35.2939 18.7431 35.2719 18.7421C34.9649 18.7531 34.7149 18.5131 34.7049 18.2091C34.6949 17.9051 34.9339 17.6521 35.2379 17.6421C35.3519 17.6391 38.0729 17.5851 40.3509 20.2791C40.5469 20.5111 40.5179 20.8581 40.2859 21.0541C40.1809 21.1421 40.0549 21.1851 39.9299 21.1851Z" fill="#1B1464"/>
<path d="M21.084 22.0908C21.046 22.0908 21.008 22.0868 20.969 22.0788C20.672 22.0168 20.482 21.7208 20.544 21.4238C20.568 21.3078 21.205 18.5548 26.827 16.9898C27.12 16.9088 27.423 17.0798 27.504 17.3718C27.585 17.6648 27.414 17.9678 27.122 18.0488C22.224 19.4128 21.625 21.6348 21.619 21.6568C21.564 21.9168 21.338 22.0908 21.084 22.0908Z" fill="#1B1464"/>
<path d="M30.847 37.0124C30.412 37.0124 29.96 36.9484 29.506 36.8184C28.449 36.5154 27.503 35.9124 26.669 35.3804C26.413 35.2174 26.338 34.8764 26.501 34.6214C26.664 34.3654 27.004 34.2904 27.26 34.4534C28.068 34.9694 28.904 35.5034 29.807 35.7614C30.744 36.0294 31.642 35.9414 32.271 35.5204C32.523 35.3514 32.865 35.4194 33.034 35.6714C33.203 35.9234 33.135 36.2654 32.883 36.4344C32.313 36.8164 31.607 37.0124 30.847 37.0124Z" fill="#1B1464"/>
<path d="M10.886 30.2143C10.505 28.5323 10.926 26.6303 11.009 24.9163C11.02 24.6993 11.039 24.4603 11.183 24.3073C11.475 23.9963 11.952 24.2743 12.346 24.4043C13.076 24.6443 13.895 24.2583 14.378 23.6273C14.948 22.8833 15.113 21.8773 15.138 20.9163C15.152 20.3723 15.108 19.9083 14.895 19.4213C14.766 19.1283 14.483 18.2943 14.169 18.1853C15.456 18.6293 17.018 18.5553 17.975 17.5373C18.261 17.2333 18.477 16.8623 18.661 16.4793C19.15 15.4593 19.631 13.6483 18.708 12.7543C19.599 13.6513 20.872 14.2993 22.118 13.9913C23.389 13.6763 24.354 12.0493 23.742 10.8213C24.377 12.1623 25.171 13.6443 26.539 14.0033C28.061 14.4033 29.73 12.8553 29.568 11.1933C30.238 12.8773 31.265 14.5593 32.873 15.1993C34.48 15.8393 36.683 14.8773 36.848 13.0563C36.804 13.5343 36.616 14.0453 36.64 14.5203C36.73 16.2903 38.325 17.6523 39.662 18.4383C40.942 19.1903 42.445 20.0233 43.981 19.7663C45.434 19.5243 46.154 18.3003 46.368 16.8333C46.508 15.8723 46.446 14.7853 45.816 14.0813C45.108 15.1953 43.792 15.8323 42.539 15.6693C43.26 15.2443 43.797 14.3793 43.676 13.5113C43.532 12.4683 42.523 12.0593 41.687 12.2593C42.519 11.1933 43.613 10.4003 43.551 8.8183C43.482 7.0633 42.068 5.2743 40.681 4.4863C39.958 4.0753 39.111 3.8373 38.313 4.0343C37.515 4.2313 36.798 4.9433 36.735 5.8143C36.526 4.1043 35.435 2.6153 34.073 1.6863C32.711 0.7573 31.099 0.3273 29.495 0.1033C28.469 -0.0407003 27.378 -0.0957003 26.448 0.3873C25.518 0.8703 24.835 2.0553 25.189 3.0913C23.992 1.2183 21.839 0.2193 19.717 0.0782997C17.595 -0.0627003 15.491 0.5573 13.507 1.3733C12.752 1.6843 11.966 2.0593 11.512 2.7733C10.531 4.3173 11.606 6.3723 12.727 7.8023C12.059 6.3343 10.26 5.9963 8.72998 5.9633C7.13498 5.9293 5.22298 6.2363 4.55498 7.7803C3.82998 9.4543 5.08197 11.2963 6.24897 12.6553C4.52397 11.8843 2.28797 13.3763 2.18497 15.3673C2.08197 17.3583 4.14997 19.1043 5.94497 18.5393C5.50997 17.9503 4.54098 18.1803 4.15598 18.8083C3.77098 19.4353 3.82497 20.2573 3.98497 20.9873C4.24397 22.1743 4.74697 23.3003 5.44697 24.2643C5.98597 25.0063 7.17598 25.6013 7.61598 24.7883C6.34398 24.9123 5.19098 25.9313 4.84098 27.2413C4.49098 28.5503 4.96798 30.0653 5.98798 30.8843C6.44098 31.2483 7.02598 31.4833 7.57698 31.3413C8.12798 31.1993 8.58397 30.5853 8.44497 29.9993C7.89197 29.7523 7.23297 30.2223 7.04897 30.8303C6.86497 31.4383 7.03997 32.1053 7.29697 32.6823C7.75997 33.7233 8.49597 34.6233 9.39897 35.2553C9.60397 35.3983 9.83798 35.5333 10.08 35.4963C10.449 35.4403 10.661 35.0253 10.785 34.6513C11.279 33.1653 11.223 31.7163 10.886 30.2143Z" fill="#444DF2"/>
<path d="M11.608 20.1952C10.969 19.4402 10.076 18.9372 8.85703 18.9092C7.06603 18.8682 5.35104 20.1022 4.70304 21.7732C3.66004 24.4642 5.40404 27.7482 7.75504 29.1362C9.84304 30.3682 12.294 29.6502 12.903 27.2132C13.173 26.1322 13.067 24.9982 12.958 23.8892C12.828 22.5532 12.428 21.1652 11.608 20.1952Z" fill="#F4C19F"/>
<path d="M7.68299 26.8873C7.40099 26.8873 7.16099 26.6713 7.13599 26.3853C7.05499 25.4533 7.41999 24.8933 7.73999 24.5873C8.32299 24.0303 9.17399 23.8853 9.79099 23.8623C9.69799 23.6513 9.562 23.4753 9.381 23.3313C8.559 22.6773 7.08099 22.8793 7.06599 22.8813C6.76599 22.9283 6.48499 22.7203 6.43999 22.4203C6.39399 22.1203 6.60099 21.8393 6.90099 21.7943C6.97999 21.7823 8.85799 21.5113 10.065 22.4703C10.643 22.9303 10.969 23.5783 11.032 24.3953C11.045 24.5603 10.982 24.7233 10.862 24.8373C10.741 24.9513 10.576 25.0043 10.411 24.9833C10.045 24.9363 8.98599 24.9163 8.49799 25.3843C8.28399 25.5903 8.19698 25.8863 8.23198 26.2903C8.25798 26.5933 8.03398 26.8593 7.73198 26.8863C7.71498 26.8863 7.69899 26.8873 7.68299 26.8873Z" fill="#EAAA7F"/>
<path d="M29.444 44.7824C29.289 44.7824 26.707 44.7684 23.398 43.9114C20.298 43.1084 15.964 41.3784 12.926 37.7004C12.733 37.4664 12.766 37.1194 13 36.9264C13.234 36.7334 13.581 36.7664 13.774 37.0004C16.618 40.4434 20.712 42.0754 23.645 42.8394C26.852 43.6744 29.414 43.6824 29.446 43.6824C29.75 43.6824 29.996 43.9284 29.996 44.2314C29.996 44.5354 29.751 44.7814 29.447 44.7824C29.447 44.7824 29.446 44.7824 29.444 44.7824Z" fill="#1B1464"/>
</g>
<defs>
<clipPath id="clip0_43203_4385">
<rect width="50" height="50" rx="25" fill="white"/>
</clipPath>
</defs>
</svg>
