<svg width="50" height="50" viewBox="0 0 50 50" fill="none" xmlns="http://www.w3.org/2000/svg">
<g clip-path="url(#clip0_43305_2404)">
<rect width="50" height="50" rx="25" fill="white"/>
<path d="M50 0.000976562H0V49.9998H50V0.000976562Z" fill="#444DF2"/>
<path d="M29.415 41.5704C29.068 44.3553 28.735 47.1852 28.624 50.0002H5.28699C5.59399 49.5292 5.95799 49.0312 6.36599 48.4882C8.36899 45.8273 9.99199 42.8813 11.179 39.7694C11.772 38.2144 12.257 36.6165 12.624 34.9925C12.88 33.8655 13.734 31.4186 13.351 30.3076C13.57 30.9436 13.879 31.5316 14.258 32.0746C15.457 33.7915 17.358 35.0425 19.334 35.8325C21.935 36.8715 24.741 37.2725 27.433 38.0454C27.996 38.2074 28.582 38.4034 28.975 38.8384C29.613 39.5464 29.533 40.6244 29.415 41.5704Z" fill="#444DF2"/>
<path d="M29.415 41.5704C29.068 44.3553 28.735 47.1852 28.624 50.0002H5.28699C5.59399 49.5292 5.95799 49.0312 6.36599 48.4882C8.36899 45.8273 9.99199 42.8813 11.179 39.7694C11.772 38.2144 12.257 36.6165 12.624 34.9925C12.88 33.8655 13.734 31.4186 13.351 30.3076C13.57 30.9436 13.879 31.5316 14.258 32.0746C15.457 33.7915 17.358 35.0425 19.334 35.8325C21.935 36.8715 24.741 37.2725 27.433 38.0454C27.996 38.2074 28.582 38.4034 28.975 38.8384C29.613 39.5464 29.533 40.6244 29.415 41.5704Z" fill="#EAAA7F"/>
<path d="M10.587 18.2039C10.555 16.0159 10.787 13.8 11.798 11.835C13.532 8.46209 17.336 6.37114 21.201 5.63915C25.067 4.90717 29.042 5.33516 32.935 5.79515C35.274 6.07214 38.762 6.49413 40.017 8.63708C41.676 11.467 41.837 15.5519 42.167 18.7189C42.497 21.8858 42.9 25.0447 43.216 28.2136C43.493 30.9926 43.386 33.9425 42.262 36.5844C40.919 39.7424 37.979 42.3103 34.493 43.1593C29.534 44.3663 22.762 42.7953 19.571 39.0324C17.228 36.2694 14.602 33.2575 13.051 30.0156C11.456 26.6817 10.807 22.9898 10.625 19.3358C10.606 18.9598 10.592 18.5819 10.587 18.2039Z" fill="#F7C9A4"/>
<path d="M14.151 31.7274C13.44 31.8074 12.742 31.7394 12.103 31.4074C11.321 31.0014 10.776 30.2625 10.275 29.5385C7.46798 25.4876 5.32298 20.6147 4.88098 15.6608C4.71198 13.7618 5.15498 11.7189 6.48898 10.3559C6.82898 10.0089 7.22298 9.70793 7.49298 9.30394C7.84898 8.77195 7.95498 8.11696 8.18298 7.51798C8.93398 5.54102 10.924 4.14506 12.842 3.25608C21.667 -0.833831 32.546 -1.44782 40.864 3.59507C41.57 4.02306 42.268 4.70204 42.756 5.36703C44.806 8.16196 42.807 12.0609 40.252 13.5968C36.617 15.7828 32.833 16.6868 28.59 16.1968C25.028 15.7848 21.61 14.5948 18.225 13.4118C19.548 16.6468 19.498 20.2997 18.276 23.5536C17.709 25.0646 17.849 25.8886 17.834 27.4635C17.825 28.3805 17.861 30.5394 16.782 30.9674C15.945 31.2994 15.038 31.6284 14.151 31.7274Z" fill="#1B1464"/>
<path d="M15.1381 22.0688C17.8181 23.9278 18.6441 28.5657 18.7121 31.6036C18.7151 31.7456 18.7171 31.8936 18.7801 32.0216C18.9831 32.4406 16.1221 32.5866 15.8901 32.5886C14.7611 32.5996 13.6311 32.4806 12.5291 32.2326C11.3331 31.9636 10.9691 31.6486 10.2581 30.6196C9.66106 29.7556 9.19406 28.7976 8.94206 27.7767C8.53306 26.1197 8.72606 24.2797 9.65906 22.8518C9.96806 22.3788 10.3591 21.9508 10.8411 21.6568C12.1411 20.8658 13.8871 21.2008 15.1381 22.0688Z" fill="#F7C9A4"/>
<path d="M17.208 31.8041C14.913 33.365 12.053 32.4431 11.242 31.7561C10.061 30.7551 9.30696 29.2621 8.94096 27.7772C8.53196 26.1202 8.72496 24.2802 9.65796 22.8523C9.96696 22.3793 10.358 21.9513 10.84 21.6573C12.14 20.8653 13.886 21.2013 15.138 22.0683C16.505 23.0163 17.441 24.5612 17.649 26.2122" fill="#F7C9A4"/>
<path d="M31.7277 26.1899C32.4635 26.1417 32.9941 25.0991 32.9128 23.8613C32.8316 22.6235 32.1693 21.6592 31.4335 21.7075C30.6978 21.7558 30.1672 22.7984 30.2484 24.0362C30.3297 25.274 30.992 26.2382 31.7277 26.1899Z" fill="#1B1464"/>
<path d="M39.5401 23.7925C40.2759 23.7442 40.8065 22.7016 40.7252 21.4638C40.644 20.226 39.9816 19.2617 39.2459 19.31C38.5101 19.3583 37.9796 20.4009 38.0608 21.6387C38.1421 22.8765 38.8044 23.8408 39.5401 23.7925Z" fill="#1B1464"/>
<path d="M36.5219 32.599C35.4039 32.599 34.2859 32.268 33.5489 31.993C33.2879 31.895 33.1549 31.605 33.2529 31.343C33.3509 31.0821 33.6419 30.9491 33.9029 31.0471C34.7509 31.364 36.8589 32.012 38.1079 31.1861C38.2079 31.1201 38.2389 31.0841 38.2479 31.0711C38.2509 31.0231 38.2129 30.8961 38.1959 30.8401C37.8779 29.7831 37.4759 28.7321 37.0879 27.7161C36.4899 26.1512 35.8719 24.5322 35.5229 22.8182C35.4669 22.5453 35.6439 22.2783 35.9169 22.2223C36.1899 22.1663 36.4569 22.3433 36.5129 22.6163C36.8459 24.2492 37.4489 25.8282 38.0319 27.3561C38.4269 28.3891 38.8349 29.4581 39.1639 30.5491C39.2219 30.7401 39.3179 31.0591 39.2069 31.391C39.0999 31.712 38.8469 31.908 38.6659 32.028C38.0289 32.448 37.2759 32.599 36.5219 32.599Z" fill="#1B1464"/>
<path d="M26.379 23.7693C26.135 23.7693 25.92 23.5913 25.881 23.3423C25.542 21.1794 26.882 18.8814 28.932 18.1124C29.193 18.0144 29.484 18.1464 29.582 18.4074C29.68 18.6684 29.548 18.9594 29.287 19.0574C27.669 19.6644 26.611 21.4784 26.879 23.1853C26.922 23.4603 26.734 23.7193 26.458 23.7623C26.431 23.7673 26.405 23.7693 26.379 23.7693Z" fill="#1B1464"/>
<path d="M40.963 17.7544C40.759 17.7544 40.567 17.6294 40.491 17.4274C40.378 17.1264 40.116 16.8754 39.774 16.7384C39.432 16.6014 39.069 16.6024 38.779 16.7404C38.528 16.8614 38.226 16.7544 38.106 16.5034C37.985 16.2524 38.092 15.9504 38.343 15.8294C38.887 15.5684 39.546 15.5584 40.15 15.8004C40.754 16.0424 41.223 16.5054 41.436 17.0704C41.534 17.3314 41.403 17.6224 41.142 17.7214C41.083 17.7434 41.022 17.7544 40.963 17.7544Z" fill="#1B1464"/>
<path d="M34.471 37.8179C33.194 37.8179 31.916 37.4569 30.865 36.7399C30.635 36.5829 30.575 36.2689 30.733 36.0379C30.89 35.8079 31.204 35.7479 31.435 35.9049C33.135 37.0649 35.545 37.1179 37.295 36.0319C37.532 35.8849 37.843 35.9579 37.99 36.1949C38.137 36.4319 38.064 36.7429 37.827 36.8899C36.829 37.5099 35.65 37.8179 34.471 37.8179Z" fill="#1B1464"/>
<path d="M28.775 44.2948C28.744 44.2948 28.713 44.2918 28.681 44.2858C24.816 43.5588 20.938 41.1979 17.763 37.638C17.577 37.43 17.596 37.111 17.804 36.925C18.012 36.739 18.331 36.758 18.517 36.966C21.545 40.3599 25.221 42.6078 28.868 43.2928C29.142 43.3448 29.322 43.6078 29.271 43.8818C29.225 44.1258 29.013 44.2948 28.775 44.2948Z" fill="#1B1464"/>
<path d="M12.388 29.1424C12.129 29.1424 11.908 28.9444 11.886 28.6814C11.812 27.8254 12.146 27.3114 12.44 27.0304C12.975 26.5194 13.756 26.3854 14.323 26.3644C14.238 26.1714 14.114 26.0104 13.949 25.8794C13.189 25.2724 11.834 25.4624 11.821 25.4644C11.546 25.5044 11.289 25.3144 11.248 25.0395C11.207 24.7645 11.396 24.5075 11.671 24.4655C11.744 24.4545 13.468 24.2055 14.576 25.0865C15.107 25.5084 15.406 26.1034 15.463 26.8534C15.475 27.0054 15.417 27.1544 15.307 27.2594C15.196 27.3644 15.044 27.4124 14.893 27.3934C14.557 27.3504 13.585 27.3314 13.137 27.7614C12.94 27.9504 12.86 28.2224 12.893 28.5934C12.917 28.8714 12.712 29.1164 12.434 29.1404C12.418 29.1414 12.403 29.1424 12.388 29.1424Z" fill="#EAAA7F"/>
</g>
<circle cx="43" cy="43" r="6" fill="#686868" stroke="white" stroke-width="2"/>
<defs>
<clipPath id="clip0_43305_2404">
<rect width="50" height="50" rx="25" fill="white"/>
</clipPath>
</defs>
</svg>
