<svg width="50" height="50" viewBox="0 0 50 50" fill="none" xmlns="http://www.w3.org/2000/svg">
<g clip-path="url(#clip0_43305_2458)">
<rect width="50" height="50" rx="25" fill="white"/>
<path d="M50 0H0V50H50V0Z" fill="#ADB0D9"/>
<path d="M37.39 13.5799C37.58 12.8799 38.09 12.2099 37.96 11.4999C37.86 10.9499 37.63 10.3799 37.7 9.80991C37.75 9.38991 38.38 8.12991 38.93 8.27991C39.15 8.33991 39.26 8.58991 39.33 8.79991C39.73 9.94991 40.05 10.9299 40.18 12.1599C40.31 13.3999 40.34 14.6499 40.29 15.8999C40.26 16.6699 40.19 17.4499 39.88 18.1499C39.61 18.7699 39.15 19.3099 38.59 19.6799C38.43 19.3299 38.09 19.1099 37.84 18.8199C37.44 18.3699 37.25 17.7799 37.14 17.1899C37.14 15.9399 37.06 14.8199 37.39 13.5799Z" fill="#444DF2"/>
<path d="M36.23 25.0004C36.03 24.1804 36.11 23.3204 36.19 22.4804C36.29 21.4704 36.59 20.4204 37.21 19.6804C37.69 19.1104 38.37 18.7304 39.29 18.7104C39.9 18.7004 40.78 18.8504 41.13 19.4004C41.49 19.9804 41.58 20.9504 41.53 21.6004C41.46 22.4804 41.1 23.2904 40.75 24.0804C40.37 24.9504 39.87 26.8204 38.71 26.9004C37.5 26.9904 36.51 26.1304 36.23 25.0004Z" fill="#F5B18F"/>
<path d="M29.79 50.0004H7.54004C7.62004 49.6604 7.70004 49.3204 7.78004 48.9804C9.37004 42.1604 9.99004 35.5504 10.08 28.4004C15.71 30.4804 21.63 29.5904 27.44 29.5004C29.6 29.4704 28.88 31.9204 28.9 34.2104C28.93 37.0704 29.04 39.9204 29.21 42.7604C29.35 45.1804 29.55 47.6004 29.79 50.0004Z" fill="#F5B18F"/>
<path d="M39.5899 16.1997C39.3599 19.0597 39.0099 21.9197 38.8199 24.7897C38.7399 26.0597 38.6899 27.3197 38.6899 28.5897C38.6999 32.5097 39.1699 36.7597 37.0099 40.0297C35.4199 42.4297 32.6099 43.8397 29.7499 44.2097C27.6799 44.4797 25.6099 44.2297 23.5899 43.7797C20.4399 43.0897 17.2099 41.8297 14.5399 39.8797C12.8999 38.6797 11.4799 37.2197 10.4299 35.4597C9.41992 33.7797 8.81992 31.8897 8.50992 29.9397C8.34992 28.9097 8.26992 27.8597 8.25992 26.8097C8.23992 24.8597 8.43993 22.9097 8.71993 20.9797C9.11993 18.2197 9.50992 15.2997 11.0799 12.9197C12.5499 10.6997 14.7299 8.96971 17.1599 7.89971C21.2199 6.11971 25.8099 5.99971 30.2399 6.26971C31.8099 6.36971 33.3899 6.50971 34.8799 7.00971C36.3699 7.50971 37.7699 8.39971 38.6199 9.70971C39.8299 11.5797 39.7699 13.9797 39.5899 16.1997Z" fill="#FEC29B"/>
<path d="M24.1273 26.0467C24.9264 25.9942 25.5024 24.8571 25.4138 23.5069C25.3251 22.1566 24.6055 21.1045 23.8063 21.157C23.0072 21.2094 22.4312 22.3466 22.5199 23.6968C22.6085 25.0471 23.3281 26.0991 24.1273 26.0467Z" fill="#1B1464"/>
<path d="M33.5387 24.7361C34.3378 24.6837 34.9138 23.5466 34.8251 22.1963C34.7365 20.8461 34.0168 19.794 33.2177 19.8464C32.4186 19.8989 31.8426 21.036 31.9312 22.3863C32.0199 23.7365 32.7395 24.7886 33.5387 24.7361Z" fill="#1B1464"/>
<path d="M21.442 19.0719C21.914 18.7909 22.667 18.5279 23.423 18.4799C24.183 18.4319 24.84 18.6039 25.257 19.0539L26.064 18.3059C25.332 17.5159 24.283 17.3229 23.353 17.3819C22.419 17.4409 21.497 17.7589 20.879 18.1269L21.442 19.0719ZM25.257 19.0539C25.464 19.2769 25.812 19.2899 26.034 19.0829C26.257 18.8759 26.27 18.5279 26.063 18.3059L25.257 19.0539ZM20.878 18.1279C20.617 18.2839 20.532 18.6209 20.687 18.8819C20.843 19.1429 21.18 19.2279 21.441 19.0729L20.878 18.1279Z" fill="#1B1464"/>
<path d="M33.32 17.8804C33.587 18.3614 33.586 18.3614 33.586 18.3614C33.586 18.3614 33.587 18.3614 33.588 18.3604C33.59 18.3594 33.595 18.3564 33.602 18.3534C33.615 18.3464 33.637 18.3354 33.666 18.3214C33.724 18.2934 33.811 18.2544 33.92 18.2114C34.141 18.1244 34.443 18.0274 34.778 17.9784C35.448 17.8804 36.172 17.9784 36.714 18.6474L37.568 17.9544C36.69 16.8724 35.504 16.7614 34.619 16.8904C34.177 16.9554 33.79 17.0804 33.517 17.1884C33.379 17.2424 33.267 17.2934 33.189 17.3314C33.149 17.3504 33.118 17.3664 33.096 17.3784C33.085 17.3844 33.076 17.3894 33.069 17.3924C33.066 17.3944 33.063 17.3954 33.061 17.3974C33.06 17.3984 33.059 17.3984 33.058 17.3994C33.058 17.3994 33.057 17.3994 33.057 17.4004C33.054 17.3994 33.053 17.3994 33.32 17.8804ZM36.713 18.6474C36.904 18.8834 37.251 18.9194 37.487 18.7284C37.723 18.5374 37.759 18.1904 37.568 17.9544L36.713 18.6474ZM33.053 17.3994C32.787 17.5464 32.691 17.8814 32.839 18.1474C32.986 18.4134 33.321 18.5094 33.587 18.3614L33.053 17.3994Z" fill="#1B1464"/>
<path d="M23.4599 34.548C25.1599 36.173 27.6039 36.976 29.9349 36.696L29.8039 35.604C27.7949 35.845 25.679 35.148 24.219 33.752L23.4599 34.548ZM29.9349 36.696C30.2369 36.66 30.4519 36.386 30.4159 36.084C30.3799 35.782 30.1059 35.567 29.8039 35.603L29.9349 36.696ZM24.22 33.752C24 33.542 23.6519 33.55 23.4419 33.77C23.2319 33.99 23.2399 34.338 23.4599 34.548L24.22 33.752Z" fill="#1B1464"/>
<path d="M39.49 10.4702C38.66 12.9602 34.81 13.3902 32.61 13.6302C29.26 14.0002 26.28 13.2502 23.06 12.5002C22.64 12.4002 17.21 11.0702 17.21 11.0702C16.93 13.8502 16.3 16.3102 14.61 18.5402C13.88 19.5002 14.52 20.7002 14.41 21.9602C14.28 23.5702 14.23 25.5302 13.73 27.0702C13.67 27.2702 13.48 27.4402 13.27 27.4102C12.98 27.3702 12.89 27.0202 12.78 26.7502C12.53 26.1202 11.82 25.5502 11.12 25.8502C10.46 26.1402 10.13 27.1702 9.79002 27.7402C9.47002 28.2802 8.97002 28.7402 8.79002 29.3402C8.73002 29.5402 8.71002 29.7502 8.62002 29.9402C8.53002 30.1302 8.35002 30.3002 8.14002 30.3002C7.99002 30.3002 7.85002 30.2002 7.74002 30.1002C6.65002 29.1602 6.47002 27.9202 6.10002 26.6402C5.68002 25.1402 5.51002 23.5902 5.36002 22.0502C5.27002 21.0502 5.19002 20.0402 5.06002 19.0402C4.95002 18.1702 4.71002 17.3102 4.70002 16.4302C4.66002 13.5902 5.25002 10.7102 6.64002 8.25024C8.46002 5.05024 12.17 3.36024 15.5 2.48024C20.98 1.04024 26.45 1.83024 31.78 3.53024C33.93 4.22024 40.51 7.44024 39.49 10.4702Z" fill="#444DF2"/>
<path d="M31.47 25.6529C31.03 25.2529 30.718 25.0259 30.485 24.7189C30.295 24.4669 30.189 24.1899 30.263 23.7389L29.177 23.5609C29.051 24.3299 29.25 24.9079 29.607 25.3809C29.922 25.7979 30.399 26.1659 30.73 26.4669L31.47 25.6529ZM32.42 27.8169C32.445 26.9919 32.068 26.1899 31.468 25.6509L30.733 26.4689C31.113 26.8099 31.335 27.3079 31.321 27.7829L32.42 27.8169ZM27.185 29.7659C28.071 30.2789 29.291 30.5679 30.342 30.3589C30.878 30.2529 31.395 30.0109 31.785 29.5739C32.179 29.1329 32.399 28.5409 32.419 27.8149L31.319 27.7839C31.304 28.2979 31.155 28.6269 30.963 28.8419C30.768 29.0609 30.486 29.2089 30.126 29.2799C29.387 29.4269 28.437 29.2209 27.733 28.8129L27.185 29.7659ZM30.263 23.7389C30.312 23.4389 30.109 23.1559 29.809 23.1069C29.509 23.0579 29.226 23.2609 29.177 23.5609L30.263 23.7389ZM31.1 26.0599L30.73 26.4669C30.731 26.4679 30.732 26.4689 30.733 26.4689L31.1 26.0599ZM31.87 27.7999L31.32 27.7829V27.7839L31.87 27.7999ZM27.735 28.8139C27.472 28.6619 27.136 28.7519 26.983 29.0149C26.831 29.2779 26.921 29.6139 27.184 29.7669L27.735 28.8139Z" fill="#1B1464"/>
<path d="M11.6101 20.1904C10.9701 19.4304 10.0801 18.9304 8.86005 18.9004C7.07005 18.8604 5.35005 20.0904 4.71005 21.7604C3.67005 24.4504 5.41005 27.7404 7.76005 29.1204C9.85005 30.3504 12.3001 29.6304 12.9101 27.2004C13.1801 26.1204 13.0701 24.9804 12.9701 23.8804C12.8301 22.5504 12.4301 21.1704 11.6101 20.1904Z" fill="#FEC29B"/>
<path d="M10.4801 24.4403C10.5531 23.8953 10.5521 23.8953 10.5521 23.8953C10.5521 23.8953 10.5521 23.8953 10.5511 23.8953H10.5501C10.5491 23.8953 10.5481 23.8953 10.5471 23.8953C10.5441 23.8953 10.5411 23.8943 10.5371 23.8943C10.5291 23.8933 10.5181 23.8923 10.5051 23.8903C10.4781 23.8873 10.4411 23.8833 10.3941 23.8803C10.3011 23.8733 10.1711 23.8653 10.0171 23.8643C9.71206 23.8623 9.29206 23.8863 8.86706 23.9963C8.44606 24.1053 7.97307 24.3113 7.62107 24.7093C7.25407 25.1233 7.07106 25.6853 7.13206 26.3883L8.22807 26.2933C8.18907 25.8463 8.30606 25.5953 8.44506 25.4383C8.59906 25.2643 8.83906 25.1393 9.14306 25.0613C9.44306 24.9833 9.76006 24.9633 10.0121 24.9643C10.1361 24.9653 10.2381 24.9713 10.3091 24.9763C10.3441 24.9793 10.3711 24.9813 10.3881 24.9833C10.3971 24.9843 10.4031 24.9853 10.4061 24.9853C10.4081 24.9853 10.4091 24.9853 10.4091 24.9853C10.4071 24.9853 10.4071 24.9853 10.4801 24.4403ZM6.98006 22.3403C7.06206 22.8843 7.06206 22.8843 7.06206 22.8843C7.06206 22.8843 7.06406 22.8843 7.06606 22.8833C7.07006 22.8823 7.07706 22.8823 7.08606 22.8803C7.10506 22.8783 7.13506 22.8743 7.17506 22.8703C7.25406 22.8623 7.37006 22.8543 7.51106 22.8513C7.79506 22.8453 8.16506 22.8633 8.53006 22.9493C8.89706 23.0353 9.22806 23.1833 9.47206 23.4133C9.70406 23.6333 9.89206 23.9593 9.93306 24.4803L11.0301 24.3963C10.9701 23.6183 10.6711 23.0313 10.2281 22.6133C9.79707 22.2063 9.26506 21.9913 8.78306 21.8773C8.29806 21.7633 7.83007 21.7433 7.49007 21.7503C7.31807 21.7533 7.17506 21.7643 7.07306 21.7733C7.02206 21.7783 6.98106 21.7833 6.95206 21.7863C6.93707 21.7883 6.92606 21.7893 6.91706 21.7913C6.91306 21.7923 6.90906 21.7923 6.90606 21.7923C6.90506 21.7923 6.90307 21.7923 6.90307 21.7933H6.90207C6.90207 21.7933 6.90206 21.7933 6.90106 21.7933C6.89806 21.7963 6.89806 21.7963 6.98006 22.3403ZM7.13206 26.3883C7.15806 26.6913 7.42507 26.9153 7.72807 26.8883C8.03107 26.8623 8.25507 26.5953 8.22807 26.2923L7.13206 26.3883ZM10.4801 24.4403L10.4071 24.9853C10.5711 25.0073 10.7371 24.9533 10.8581 24.8393C10.9791 24.7253 11.0411 24.5633 11.0281 24.3973L10.4801 24.4403ZM6.89806 21.7963C6.59806 21.8423 6.39106 22.1223 6.43706 22.4223C6.48306 22.7223 6.76306 22.9293 7.06306 22.8833L6.89806 21.7963Z" fill="#F4AC7D"/>
<path d="M28.6251 43.6008C24.4831 43.7858 19.5711 42.5128 16.1451 40.2228L15.5341 41.1368C19.1681 43.5668 24.316 44.8938 28.6741 44.6988L28.6251 43.6008ZM16.1461 40.2228C15.8931 40.0538 15.5521 40.1218 15.3831 40.3748C15.2141 40.6278 15.282 40.9688 15.535 41.1378L16.1461 40.2228ZM28.6751 44.6988C28.9781 44.6848 29.2131 44.4278 29.2001 44.1248C29.1871 43.8218 28.9291 43.5868 28.6261 43.5998L28.6751 44.6988Z" fill="#1B1464"/>
</g>
<circle cx="43" cy="43" r="6" fill="#92C83E" stroke="white" stroke-width="2"/>
<defs>
<clipPath id="clip0_43305_2458">
<rect width="50" height="50" rx="25" fill="white"/>
</clipPath>
</defs>
</svg>
