<svg width="50" height="50" viewBox="0 0 50 50" fill="none" xmlns="http://www.w3.org/2000/svg">
<g clip-path="url(#clip0_43305_2481)">
<rect width="50" height="50" rx="25" fill="white"/>
<path d="M50 0H0V50H50V0Z" fill="#797EF3"/>
<path d="M38.4999 22.8403C38.1899 22.0603 38.1599 21.1903 38.1299 20.3503C38.0999 19.3303 38.2599 18.2503 38.7799 17.4403C39.1799 16.8103 39.8099 16.3403 40.7199 16.2003C41.3199 16.1103 42.2199 16.1503 42.6299 16.6403C43.0699 17.1603 43.2799 18.1103 43.3099 18.7703C43.3499 19.6503 43.0999 20.5003 42.8599 21.3303C42.5899 22.2403 42.3399 24.1603 41.2099 24.3903C40.0199 24.6503 38.9199 23.9203 38.4999 22.8403Z" fill="#D9A48E"/>
<path d="M34.4299 50.0004H12.1799C12.2599 49.6604 12.3399 49.3204 12.4199 48.9804C14.0099 42.1604 14.6299 35.5504 14.7199 28.4004C20.3499 30.4804 26.2699 29.5904 32.0799 29.5004C34.2399 29.4704 33.5199 31.9204 33.5399 34.2104C33.5699 37.0704 33.6799 39.9204 33.8499 42.7604C33.9999 45.1804 34.1899 47.6004 34.4299 50.0004Z" fill="#D9A48E"/>
<path d="M40.43 13.7196C41 16.4696 40.84 19.3696 41.03 22.2796C41.11 23.5496 41.23 24.8096 41.4 26.0696C41.93 29.9496 42.94 34.1096 41.23 37.6296C39.97 40.2196 37.37 41.9796 34.58 42.7196C32.56 43.2596 30.48 43.2796 28.41 43.0996C25.2 42.8196 21.83 42.0096 18.93 40.4196C17.15 39.4496 15.55 38.1796 14.27 36.5796C12.59 34.4596 12.13 32.5996 11.83 30.0296C10.82 21.3996 5.65001 11.5696 15.18 5.61961C22.17 1.24961 33.79 2.16961 38.62 9.32961C39.58 10.7296 40.12 12.1996 40.43 13.7196Z" fill="#E5B69E"/>
<path d="M26.5255 25.4495C27.3108 25.2929 27.7329 24.0902 27.4683 22.7632C27.2036 21.4362 26.3524 20.4875 25.567 20.6441C24.7817 20.8008 24.3596 22.0035 24.6242 23.3304C24.8889 24.6574 25.7401 25.6062 26.5255 25.4495Z" fill="#1B1464"/>
<path d="M35.6845 22.9085C36.4699 22.7519 36.892 21.5492 36.6273 20.2222C36.3627 18.8952 35.5115 17.9465 34.7261 18.1031C33.9407 18.2597 33.5186 19.4625 33.7833 20.7894C34.048 22.1164 34.8992 23.0652 35.6845 22.9085Z" fill="#1B1464"/>
<path d="M22.958 18.8935C23.392 18.5545 24.106 18.1975 24.85 18.0505C25.598 17.9035 26.275 17.9855 26.752 18.3755L27.448 17.5235C26.615 16.8435 25.552 16.7915 24.638 16.9715C23.72 17.1525 22.848 17.5845 22.282 18.0265L22.958 18.8935ZM26.752 18.3755C26.987 18.5675 27.334 18.5325 27.526 18.2975C27.718 18.0625 27.683 17.7155 27.448 17.5235L26.752 18.3755ZM22.282 18.0255C22.042 18.2125 22 18.5575 22.187 18.7975C22.374 19.0375 22.719 19.0795 22.959 18.8925L22.282 18.0255Z" fill="#1B1464"/>
<path d="M32.08 14.9597C32.406 15.4027 32.406 15.4027 32.406 15.4027C32.406 15.4027 32.407 15.4017 32.408 15.4017C32.41 15.3997 32.414 15.3967 32.421 15.3927C32.433 15.3837 32.453 15.3707 32.48 15.3527C32.534 15.3177 32.615 15.2667 32.718 15.2097C32.926 15.0947 33.213 14.9587 33.539 14.8667C34.191 14.6827 34.92 14.6867 35.542 15.2777L36.3 14.4807C35.291 13.5217 34.101 13.5657 33.24 13.8087C32.81 13.9307 32.443 14.1047 32.186 14.2477C32.056 14.3197 31.952 14.3837 31.879 14.4317C31.842 14.4557 31.813 14.4757 31.792 14.4897C31.782 14.4967 31.773 14.5027 31.767 14.5077C31.764 14.5097 31.761 14.5117 31.759 14.5137C31.758 14.5147 31.757 14.5147 31.756 14.5157L31.755 14.5167C31.754 14.5167 31.754 14.5167 32.08 14.9597ZM35.541 15.2787C35.761 15.4877 36.109 15.4797 36.319 15.2587C36.528 15.0387 36.52 14.6907 36.299 14.4807L35.541 15.2787ZM31.754 14.5167C31.51 14.6967 31.458 15.0417 31.638 15.2857C31.818 15.5297 32.163 15.5817 32.407 15.4017L31.754 14.5167Z" fill="#1B1464"/>
<path d="M26.986 33.9741C28.889 35.3611 31.408 35.8431 33.688 35.2521L33.412 34.1871C31.452 34.6961 29.271 34.2781 27.634 33.0851L26.986 33.9741ZM33.688 35.2521C33.982 35.1761 34.159 34.8761 34.082 34.5821C34.006 34.2881 33.706 34.1111 33.412 34.1881L33.688 35.2521ZM27.634 33.0861C27.389 32.9071 27.044 32.9611 26.866 33.2071C26.688 33.4531 26.741 33.7971 26.987 33.9751L27.634 33.0861Z" fill="#1B1464"/>
<path d="M32.519 21.7491C32.417 21.2551 32.448 20.7411 32.489 20.1381L31.3921 20.0641C31.3531 20.6411 31.3041 21.3071 31.4421 21.9731L32.519 21.7491ZM34.1161 24.5881C33.3361 23.7791 32.742 22.8391 32.519 21.7501L31.4411 21.9711C31.7181 23.3211 32.445 24.4411 33.324 25.3531L34.1161 24.5881ZM34.5671 28.1161C35.0711 27.4941 35.2131 26.8301 35.0661 26.1841C34.9271 25.5731 34.5421 25.0361 34.1181 24.5911L33.321 25.3491C33.687 25.7331 33.9181 26.0971 33.9931 26.4281C34.0611 26.7241 34.018 27.0461 33.712 27.4231L34.5671 28.1161ZM30.149 28.7481C30.784 29.0121 31.598 29.1771 32.386 29.1281C33.172 29.0791 34.0071 28.8081 34.5671 28.1171L33.713 27.4241C33.414 27.7931 32.9231 27.9921 32.3171 28.0301C31.7131 28.0681 31.067 27.9381 30.571 27.7321L30.149 28.7481ZM32.489 20.1371C32.51 19.8341 32.281 19.5721 31.977 19.5511C31.674 19.5301 31.4121 19.7591 31.391 20.0631L32.489 20.1371ZM31.9801 21.8601L32.519 21.7501V21.7491L31.9801 21.8601ZM33.72 24.9701L34.1181 24.5911C34.1171 24.5901 34.116 24.5891 34.115 24.5881L33.72 24.9701ZM30.571 27.7321C30.291 27.6151 29.969 27.7481 29.852 28.0291C29.735 28.3091 29.868 28.6311 30.149 28.7481L30.571 27.7321Z" fill="#1B1464"/>
<path d="M34.4901 34.9003C34.4901 34.9203 34.4801 34.9403 34.4801 34.9603C34.4201 35.3503 34.2201 35.7003 33.9701 36.0003C33.1201 37.0203 31.7101 37.4903 30.4001 37.3303C29.0901 37.1703 27.8801 36.4303 27.0101 35.4303C26.5701 34.9203 26.2101 34.3303 26.1101 33.6703C26.0701 33.4003 26.0901 33.0903 26.3001 32.9203C26.3801 32.8503 26.4801 32.8103 26.5801 32.7803C27.7801 32.3903 29.0601 32.8903 30.2801 33.2003C31.0001 33.3803 31.7401 33.5003 32.4801 33.5803C33.4601 33.6903 34.6701 33.4803 34.4901 34.9003ZM41.0401 22.2803C40.9101 22.6203 40.8301 22.9703 40.7601 23.3203C40.4701 24.8603 40.6101 26.4703 40.1301 27.9803C39.7001 29.3303 38.5701 30.5503 37.5001 31.4403C37.2601 31.6403 37.0001 31.8403 36.7001 31.9503C35.5901 32.3603 34.5001 31.7403 33.4101 31.7203C32.6701 31.7003 31.9301 31.8003 31.1901 31.7603C29.6001 31.6703 28.0701 30.9103 26.4701 30.9803C24.9301 31.0503 23.7101 32.0703 22.2701 32.5203C21.3201 32.8203 20.2601 32.6503 19.3801 32.1803C18.6201 31.7803 17.8101 31.1403 17.4001 30.3703C16.9301 29.4803 16.8301 28.3303 16.4801 27.3803C16.2701 26.8003 15.1301 24.3803 14.8601 26.1503C14.6901 27.2403 14.6401 28.3103 14.2401 29.3603C14.0101 29.9703 13.7001 30.5503 13.5001 31.1703C12.1301 35.4703 15.4901 38.5503 18.9201 40.4303C21.8201 42.0103 25.1901 42.8303 28.4001 43.1103C30.4601 43.2903 32.5501 43.2603 34.5701 42.7303C37.3501 41.9903 39.9601 40.2203 41.2201 37.6403C42.9301 34.1203 41.9201 29.9603 41.3901 26.0803C41.2401 24.8103 41.1201 23.5503 41.0401 22.2803Z" fill="#1B1464"/>
<path d="M13.46 21.3002C12.73 20.6302 11.78 20.2502 10.56 20.3902C8.78 20.5802 7.24 22.0302 6.82 23.7702C6.14 26.5702 8.3 29.6002 10.81 30.6702C13.04 31.6202 15.38 30.5902 15.66 28.0902C15.79 26.9802 15.53 25.8702 15.28 24.7902C14.98 23.4802 14.4 22.1502 13.46 21.3002Z" fill="#E5B69E"/>
<path d="M12.8899 25.6502C12.8899 25.1002 12.8899 25.1002 12.8899 25.1002C12.8899 25.1002 12.8899 25.1002 12.8889 25.1002H12.8879C12.8869 25.1002 12.8859 25.1002 12.8849 25.1002C12.8819 25.1002 12.8789 25.1002 12.8749 25.1002C12.8669 25.1002 12.8559 25.1002 12.8429 25.1012C12.8159 25.1022 12.7779 25.1032 12.7319 25.1052C12.6389 25.1102 12.5089 25.1202 12.3559 25.1392C12.0529 25.1782 11.6389 25.2562 11.2319 25.4212C10.8279 25.5842 10.3869 25.8502 10.0889 26.2912C9.77893 26.7502 9.66993 27.3302 9.82293 28.0192L10.8969 27.7802C10.7999 27.3442 10.8829 27.0812 10.9999 26.9062C11.1299 26.7142 11.3519 26.5582 11.6439 26.4402C11.9319 26.3232 12.2439 26.2612 12.4939 26.2302C12.6169 26.2142 12.7199 26.2072 12.7899 26.2032C12.8249 26.2012 12.8519 26.2002 12.8699 26.2002C12.8789 26.2002 12.8849 26.2002 12.8879 26.2002C12.8899 26.2002 12.8909 26.2002 12.8909 26.2002C12.8899 26.2002 12.8899 26.2002 12.8899 25.6502ZM9.14993 24.0302C9.30293 24.5582 9.30293 24.5582 9.30293 24.5582C9.30293 24.5582 9.30492 24.5582 9.30692 24.5572C9.31092 24.5562 9.31693 24.5542 9.32693 24.5522C9.34593 24.5472 9.37493 24.5402 9.41393 24.5312C9.49193 24.5132 9.60592 24.4902 9.74492 24.4682C10.0269 24.4252 10.3949 24.3942 10.7689 24.4312C11.1449 24.4682 11.4909 24.5712 11.7619 24.7672C12.0199 24.9532 12.2469 25.2512 12.3539 25.7622L13.4309 25.5382C13.2719 24.7742 12.8999 24.2322 12.4069 23.8752C11.9269 23.5282 11.3719 23.3852 10.8779 23.3362C10.3829 23.2872 9.91593 23.3292 9.57893 23.3802C9.40893 23.4062 9.26793 23.4352 9.16793 23.4582C9.11793 23.4702 9.07793 23.4802 9.04893 23.4872C9.03493 23.4912 9.02293 23.4942 9.01493 23.4962C9.01093 23.4972 9.00693 23.4982 9.00493 23.4992C9.00393 23.4992 9.00293 23.5002 9.00193 23.5002H9.00093C9.00093 23.5002 9.00093 23.5002 8.99993 23.5002C8.99693 23.5022 8.99693 23.5022 9.14993 24.0302ZM9.82293 28.0192C9.88893 28.3162 10.1829 28.5022 10.4789 28.4372C10.7749 28.3722 10.9619 28.0772 10.8969 27.7812L9.82293 28.0192ZM12.8899 25.6502V26.2002C13.0559 26.2002 13.2119 26.1252 13.3169 25.9972C13.4209 25.8692 13.4629 25.7002 13.4289 25.5382L12.8899 25.6502ZM8.99693 23.5022C8.70493 23.5872 8.53693 23.8922 8.62193 24.1832C8.70693 24.4752 9.01193 24.6432 9.30293 24.5582L8.99693 23.5022Z" fill="#DB9F7F"/>
<path d="M12.2 11.5898C11.56 11.5898 11.56 12.5898 12.2 12.5898C12.85 12.5898 12.85 11.5898 12.2 11.5898Z" fill="#DB9F7F"/>
<path d="M13.0501 9.83008C12.4101 9.83008 12.4101 10.8301 13.0501 10.8301C13.6901 10.8301 13.6901 9.83008 13.0501 9.83008Z" fill="#DB9F7F"/>
<path d="M14.09 11.5195C13.45 11.5195 13.45 12.5195 14.09 12.5195C14.73 12.5195 14.73 11.5195 14.09 11.5195Z" fill="#DB9F7F"/>
</g>
<circle cx="43" cy="43" r="6" fill="#686868" stroke="white" stroke-width="2"/>
<defs>
<clipPath id="clip0_43305_2481">
<rect width="50" height="50" rx="25" fill="white"/>
</clipPath>
</defs>
</svg>
