<svg width="25" height="24" viewBox="0 0 25 24" fill="none" xmlns="http://www.w3.org/2000/svg">
<mask id="mask0_46503_3901" style="mask-type:alpha" maskUnits="userSpaceOnUse" x="0" y="0" width="25" height="24">
<rect x="0.959961" width="24" height="24" fill="#D9D9D9"/>
</mask>
<g mask="url(#mask0_46503_3901)">
<path d="M12.96 22C11.5766 22 10.2766 21.7375 9.05996 21.2125C7.84329 20.6875 6.78496 19.975 5.88496 19.075C4.98496 18.175 4.27246 17.1167 3.74746 15.9C3.22246 14.6833 2.95996 13.3833 2.95996 12C2.95996 10.6167 3.22246 9.31667 3.74746 8.1C4.27246 6.88333 4.98496 5.825 5.88496 4.925C6.78496 4.025 7.84329 3.3125 9.05996 2.7875C10.2766 2.2625 11.5766 2 12.96 2C13.71 2 14.4391 2.07917 15.1475 2.2375C15.8558 2.39583 16.5266 2.625 17.16 2.925C17.0933 3.09167 17.0433 3.26667 17.01 3.45C16.9766 3.63333 16.96 3.81667 16.96 4C16.96 4.23333 16.985 4.45417 17.035 4.6625C17.085 4.87083 17.1516 5.06667 17.235 5.25C16.6183 4.86667 15.9516 4.5625 15.235 4.3375C14.5183 4.1125 13.76 4 12.96 4C10.7433 4 8.85579 4.77917 7.29746 6.3375C5.73913 7.89583 4.95996 9.78333 4.95996 12C4.95996 14.2167 5.73913 16.1042 7.29746 17.6625C8.85579 19.2208 10.7433 20 12.96 20C15.1766 20 17.0641 19.2208 18.6225 17.6625C20.1808 16.1042 20.96 14.2167 20.96 12C20.96 11.3333 20.8808 10.6917 20.7225 10.075C20.5641 9.45833 20.3433 8.875 20.06 8.325C20.3266 8.54167 20.6183 8.70833 20.935 8.825C21.2516 8.94167 21.5933 9 21.96 9C22.0433 9 22.1308 8.99583 22.2225 8.9875C22.3141 8.97917 22.4016 8.96667 22.485 8.95C22.635 9.43333 22.7516 9.92917 22.835 10.4375C22.9183 10.9458 22.96 11.4667 22.96 12C22.96 13.3833 22.6975 14.6833 22.1725 15.9C21.6475 17.1167 20.935 18.175 20.035 19.075C19.135 19.975 18.0766 20.6875 16.86 21.2125C15.6433 21.7375 14.3433 22 12.96 22ZM16.46 11C16.8933 11 17.2516 10.8583 17.535 10.575C17.8183 10.2917 17.96 9.93333 17.96 9.5C17.96 9.06667 17.8183 8.70833 17.535 8.425C17.2516 8.14167 16.8933 8 16.46 8C16.0266 8 15.6683 8.14167 15.385 8.425C15.1016 8.70833 14.96 9.06667 14.96 9.5C14.96 9.93333 15.1016 10.2917 15.385 10.575C15.6683 10.8583 16.0266 11 16.46 11ZM9.45996 11C9.89329 11 10.2516 10.8583 10.535 10.575C10.8183 10.2917 10.96 9.93333 10.96 9.5C10.96 9.06667 10.8183 8.70833 10.535 8.425C10.2516 8.14167 9.89329 8 9.45996 8C9.02663 8 8.66829 8.14167 8.38496 8.425C8.10163 8.70833 7.95996 9.06667 7.95996 9.5C7.95996 9.93333 8.10163 10.2917 8.38496 10.575C8.66829 10.8583 9.02663 11 9.45996 11ZM12.96 17.5C14.1433 17.5 15.1891 17.175 16.0975 16.525C17.0058 15.875 17.66 15.0333 18.06 14H7.85996C8.25996 15.0333 8.91413 15.875 9.82246 16.525C10.7308 17.175 11.7766 17.5 12.96 17.5ZM20.96 5H19.96C19.6766 5 19.4391 4.90417 19.2475 4.7125C19.0558 4.52083 18.96 4.28333 18.96 4C18.96 3.71667 19.0558 3.47917 19.2475 3.2875C19.4391 3.09583 19.6766 3 19.96 3H20.96V2C20.96 1.71667 21.0558 1.47917 21.2475 1.2875C21.4391 1.09583 21.6766 1 21.96 1C22.2433 1 22.4808 1.09583 22.6725 1.2875C22.8641 1.47917 22.96 1.71667 22.96 2V3H23.96C24.2433 3 24.4808 3.09583 24.6725 3.2875C24.8641 3.47917 24.96 3.71667 24.96 4C24.96 4.28333 24.8641 4.52083 24.6725 4.7125C24.4808 4.90417 24.2433 5 23.96 5H22.96V6C22.96 6.28333 22.8641 6.52083 22.6725 6.7125C22.4808 6.90417 22.2433 7 21.96 7C21.6766 7 21.4391 6.90417 21.2475 6.7125C21.0558 6.52083 20.96 6.28333 20.96 6V5Z" fill="black"/>
</g>
</svg>
